Coordinates
version=1
nRows=22
nColumns=24
inDegrees=yes

Units are S.I. units (second, meters, Newtons, ...)
Angles are in degrees.

endheader
time	pelvis_tilt	pelvis_list	pelvis_rotation	pelvis_tx	pelvis_ty	pelvis_tz	hip_flexion_r	hip_adduction_r	hip_rotation_r	knee_angle_r	ankle_angle_r	subtalar_angle_r	mtp_angle_r	hip_flexion_l	hip_adduction_l	hip_rotation_l	knee_angle_l	ankle_angle_l	subtalar_angle_l	mtp_angle_l	lumbar_extension	lumbar_bending	lumbar_rotation
      1.39566667	     -1.66873292	      2.43067946	    -15.30290088	      0.95542845	      0.97849760	      0.35024216	    -17.07627511	     -3.69789158	      9.75146713	     -8.53148954	     15.07618143	     -1.92452463	      4.73860455	     26.84108787	     -2.66718487	    -14.64461853	      3.73598579	      3.73920939	    -13.47753312	      3.07678427	     -0.07237330	     -2.12169289	     12.99426139
      1.39983333	     -1.63592157	      2.51799924	    -15.44071830	      0.96160991	      0.97797554	      0.35001739	    -17.22733538	     -3.92341303	      9.71937559	     -8.93347131	     14.92106561	     -1.85904421	      4.75959185	     26.85416081	     -2.63283393	    -14.61158054	      3.23239676	      3.91949598	    -13.66938038	      3.07995278	     -0.04616216	     -2.24898365	     13.10984945
      1.40400000	     -1.60999013	      2.63124380	    -15.59059308	      0.96783954	      0.97745459	      0.34975354	    -17.32152428	     -4.18375188	      9.60890628	     -9.42014063	     14.83242945	     -1.59253408	      4.86583560	     26.87278517	     -2.57140151	    -14.58429993	      2.70399176	      4.02196313	    -13.88297172	      3.09034528	     -0.02225656	     -2.39570832	     13.40229963
      1.40816667	     -1.56985834	      2.74481449	    -15.72575715	      0.97412471	      0.97699414	      0.34949554	    -17.46019636	     -4.43777109	      9.60032361	     -9.85058356	     14.61306520	     -1.59230974	      4.88824048	     26.87725128	     -2.49770550	    -14.57323826	      2.14469305	      4.08917364	    -14.05189644	      3.09434091	     -0.00246721	     -2.54995470	     13.43607887
      1.41233333	     -1.53563824	      2.88769936	    -15.85760326	      0.98046931	      0.97652445	      0.34918595	    -17.53427048	     -4.72798855	      9.43105233	    -10.38573054	     14.49312000	     -1.30414099	      5.08402635	     26.88573321	     -2.38530735	    -14.54296150	      1.56759710	      4.13674598	    -14.28792265	      3.12687682	      0.06280112	     -2.73874288	     13.69649564
      1.41650000	     -1.48717248	      3.03229373	    -15.98556999	      0.98688077	      0.97612270	      0.34889635	    -17.65141582	     -5.01561901	      9.38441322	    -10.86443174	     14.23093712	     -1.30164979	      5.14764812	     26.87442426	     -2.26334775	    -14.54094577	      0.97707224	      4.15515093	    -14.46543662	      3.13770998	      0.11590926	     -2.93274930	     13.74366223
      1.42066667	     -1.44746846	      3.21639987	    -16.11916584	      0.99334033	      0.97571121	      0.34855007	    -17.69570512	     -5.35303768	      9.21147082	    -11.44898791	     14.07171124	     -1.00759069	      5.45789003	     26.86443055	     -2.09374253	    -14.54053413	      0.41306798	      4.01194307	    -14.73316843	      3.19211577	      0.17557493	     -3.16095630	     13.99181811
      1.42483333	     -1.39541281	      3.38488711	    -16.21900845	      0.99983459	      0.97535883	      0.34819762	    -17.78877838	     -5.65715737	      9.12858264	    -11.97554093	     13.74637960	     -1.02426742	      5.56208231	     26.85810940	     -1.92560358	    -14.53460654	     -0.20792334	      3.93163476	    -14.90191877	      3.21297078	      0.24123029	     -3.38698908	     14.02838647
      1.42900000	     -1.35302208	      3.59448830	    -16.33435241	      1.00638675	      0.97501357	      0.34780831	    -17.81292537	     -6.01560898	      8.96040860	    -12.58189806	     13.40802906	     -0.90395319	     11.06091940	     26.83336809	     -1.70858212	    -14.52884182	     -0.74895837	      3.65539666	    -15.21494555	      4.35886610	      0.30851892	     -3.64185050	     14.21378574
      1.43316667	     -1.30128966	      3.81050661	    -16.42560454	      1.01296128	      0.97470077	      0.34738517	    -17.83720676	     -6.37111400	      8.79071722	    -13.22056909	     13.11647174	     -0.75163622	     11.11552930	     26.82250673	     -1.47536588	    -14.55587063	     -1.33615169	      3.37545727	    -15.41990932	      4.38364489	      0.38163675	     -3.91255178	     14.29495502
      1.43733333	     -1.25218889	      4.04126432	    -16.50169408	      1.01960959	      0.97442730	      0.34696260	    -17.86769143	     -6.73168025	      8.65998559	    -13.83472964	     12.71831156	     -0.71851124	     11.16455426	     26.81441723	     -1.22110239	    -14.59592328	     -1.91966724	      3.08527187	    -15.56192432	      4.39864415	      0.47550708	     -4.21114478	     14.35939951
      1.44150000	     -1.19287603	      4.29038230	    -16.58253016	      1.02624744	      0.97417487	      0.34646986	    -17.83451319	     -7.12477148	      8.42099019	    -14.58235544	     12.42424192	     -0.47252815	     11.35419475	     26.78886815	     -0.93358904	    -14.61517358	     -2.46953148	      2.65324694	    -15.87266736	      4.45729264	      0.55344561	     -4.50435090	     14.50349950
      1.44566667	     -1.14133383	      4.55400955	    -16.64830509	      1.03291760	      0.97395513	      0.34597767	    -17.78811599	     -7.52004485	      8.21895407	    -15.33079603	     12.03690361	     -0.32556077	     11.64863851	     26.77232518	     -0.62758268	    -14.64147520	     -3.01036773	      2.20486546	    -16.13024784	      4.54687661	      0.65305840	     -4.82498166	     14.59212705
      1.44983333	     -1.07978478	      4.82953714	    -16.64510442	      1.03967172	      0.97377521	      0.34541303	    -17.77428888	     -7.90571679	      7.98071124	    -16.04954517	     11.52340501	     -0.38520034	     15.48253869	     26.75108508	     -0.27297463	    -14.58607230	     -3.54896986	      1.70200155	    -16.42292056	      5.71203504	      0.74904479	     -5.17985744	     14.60620025
      1.45400000	     -1.02072208	      5.10777265	    -16.69997429	      1.04636650	      0.97364198	      0.34487512	    -17.68357314	     -8.31459965	      7.77276277	    -16.87811835	     11.03321780	     -0.20538467	     15.55010816	     26.74908281	      0.04735793	    -14.71176805	     -4.12843067	      1.26008633	    -16.50024755	      5.73286875	      0.84342966	     -5.51038403	     14.67732476
      1.45816667	     -0.96437403	      5.39140068	    -16.68765555	      1.05310753	      0.97353601	      0.34428519	    -17.61371673	     -8.69893762	      7.56526193	    -17.67915785	     10.44713609	     -0.18362031	     15.60395279	     26.76894121	      0.39711558	    -14.76418027	     -4.73871959	      0.82639442	    -16.56955867	      5.74682075	      0.94343918	     -5.87457550	     14.69570194
      1.46233333	     -0.89714385	      5.70713241	    -16.67529974	      1.05985407	      0.97344118	      0.34360226	    -17.46938526	     -9.13868177	      7.21883553	    -18.63081869	      9.96953772	      0.10597346	     15.98489521	     26.75820406	      0.80551976	    -14.72214255	     -5.28341683	      0.31825375	    -16.86826807	      5.84873140	      1.03977110	     -6.24771124	     14.76580430
      1.46650000	     -0.83161078	      6.00694482	    -16.64832914	      1.06661096	      0.97342744	      0.34297983	    -17.35419589	     -9.53356283	      7.02524096	    -19.52209740	      9.32298434	      0.08235827	     16.08015680	     26.77456595	      1.17749965	    -14.80584360	     -5.89697617	     -0.14238700	    -16.87404310	      5.87049059	      1.13139353	     -6.63146733	     14.74735176
      1.47066667	     -0.77382971	      6.33360337	    -16.62554981	      1.07331302	      0.97338563	      0.34226266	    -17.12948485	     -9.97761603	      6.70458101	    -20.58878033	      8.81510969	      0.36536470	     16.43528017	     26.80886568	      1.58170726	    -14.85878622	     -6.50806475	     -0.61027295	    -17.01173204	      5.95379567	      1.23736337	     -7.01044869	     14.75786648
      1.47483333	     -0.69428789	      6.63662089	    -16.55644150	      1.08005328	      0.97345943	      0.34156504	    -16.98137691	    -10.36773994	      6.48263847	    -21.56415687	      8.05402868	      0.34464757	     16.57375669	     26.81823301	      1.98049421	    -14.88158395	     -7.13660420	     -0.99251364	    -17.02153934	      5.98355530	      1.30703467	     -7.41104537	     14.74684107
      1.47900000	     -0.63343564	      6.96625693	    -16.48191858	      1.08677095	      0.97349462	      0.34076864	    -16.72963412	    -10.80205768	      6.15070519	    -22.67768682	      7.35433230	      0.45109246	     22.26796434	     26.85167034	      2.41308117	    -14.86747135	     -7.75470026	     -1.41584310	    -17.17746995	      7.22337116	      1.40283084	     -7.79217236	     14.68737550
      1.48316667	     -0.54172211	      7.26659584	    -16.39839177	      1.09343544	      0.97365006	      0.34001439	    -16.51936920	    -11.19125478	      5.92895557	    -23.77840268	      6.57771961	      0.49904112	     22.28136666	     26.86238446	      2.81368290	    -14.91110607	     -8.42393822	     -1.72427015	    -17.13540557	      7.22850857	      1.44429817	     -8.18964372	     14.68620266
